<svg xmlns="http://www.w3.org/2000/svg" viewBox="0 0 250 350" width="250" height="350">
  <defs>
    <linearGradient id="darkGoldGradient" x1="0%" y1="0%" x2="100%" y2="100%">
      <stop offset="0%" style="stop-color:#B3935D;stop-opacity:1" />
      <stop offset="100%" style="stop-color:#7A5E2F;stop-opacity:1" />
    </linearGradient>
    <path id="spade-sym" d="M50,5 C50,5 10,45 10,65 C10,82 25,90 40,88 C35,95 35,100 35,100 L65,100 C65,100 65,95 60,88 C75,90 90,82 90,65 C90,45 50,5 50,5 Z" fill="#212121"/>
  </defs>
  <rect x="2" y="2" width="246" height="346" rx="15" fill="url(#darkGoldGradient)" stroke="#5C461F" stroke-width="2"/>
  
  <text x="20" y="40" font-family="Arial Black, sans-serif" font-size="32" fill="#212121">5</text>
  <use href="#spade-sym" transform="translate(12, 45) scale(0.3)"/>
  <g transform="rotate(180 125 175)">
    <text x="20" y="40" font-family="Arial Black, sans-serif" font-size="32" fill="#212121">5</text>
    <use href="#spade-sym" transform="translate(12, 45) scale(0.3)"/>
  </g>
  
  <use href="#spade-sym" transform="translate(60, 50) scale(0.5)"/>
  <use href="#spade-sym" transform="translate(140, 50) scale(0.5)"/>
  <use href="#spade-sym" transform="translate(100, 150) scale(0.5)"/>
  <use href="#spade-sym" transform="translate(60, 250) scale(0.5) rotate(180 50 50)"/>
  <use href="#spade-sym" transform="translate(140, 250) scale(0.5) rotate(180 50 50)"/>
</svg>
